# xmcd
#
# Track frame offsets: 
#        150
#        10642
#        22842
#        34860
#        45845
#        61907
#        76122
#        86475
#        98982
#        113272
#        123220
#        134405
#
# Disc length: 2033 seconds
#
# Revision: 4
# Processed by: cddbd v1.5.2PL0 Copyright (c) Steve Scherf et al.
# Submitted via: ExactAudioCopy v0.99pb5
#
DISCID=7907ef0c
DTITLE=Captain Beefheart and His Magic Band - Safe As Milk
DYEAR=1990
DGENRE=Psychedelic Rock
TTITLE0=Sure 'Nuff'N Yes, I Do
TTITLE1=Zig Zag Wanderer
TTITLE2=Call On Me
TTITLE3=Dropout Boogie
TTITLE4=I'm Glad
TTITLE5=Electricity
TTITLE6=Yellow Brick Road
TTITLE7=Abba Zaba
TTITLE8=Plastic Factory
TTITLE9=Where There's Woman
TTITLE10=Grown So Ugly
TTITLE11=Autumn's Child
EXTD=
EXTT0=
EXTT1=
EXTT2=
EXTT3=
EXTT4=
EXTT5=
EXTT6=
EXTT7=
EXTT8=
EXTT9=
EXTT10=
EXTT11=
PLAYORDER=
